<?xml version="1.0" encoding="utf-8"?>
<!-- Generator: Adobe Illustrator 25.2.1, SVG Export Plug-In . SVG Version: 6.00 Build 0)  -->
<svg version="1.1" id="Layer_1" xmlns="http://www.w3.org/2000/svg" xmlns:xlink="http://www.w3.org/1999/xlink" x="0px" y="0px"
	 viewBox="0 0 97 49" style="enable-background:new 0 0 97 49;" xml:space="preserve">
<style type="text/css">
	.st0{fill:#FFFFFF;stroke:#000000;stroke-miterlimit:10;}
	.st1{fill:#FFFFFF;stroke:#231F20;stroke-width:0.25;stroke-miterlimit:10;}
</style>
<path class="st0" d="M95.9,29.6c-0.1-0.1-0.3-0.1-0.4-0.1c-0.3,0-0.6,0.1-0.8,0.2c-0.2,0.1-0.4,0.3-0.5,0.5
	c-0.3,0.5-0.6,1.1-0.9,1.6c-0.5,0.7-1,1.4-1.5,2.1c-0.5,0.6-1.1,1.2-1.7,1.8c0,0.1-0.1,0.1-0.2,0.1c-0.1,0-0.2,0-0.2,0
	c-0.1,0-0.1-0.1-0.1-0.2c0-0.1,0-0.1,0-0.2c0.2-1.5,0.3-3,0.5-4.6c0.1-0.7,0.2-1.3,0.3-2c0.1-1,0.2-2,0.3-2.9l0.9-7.3
	c0.1-0.5,0.1-1.5-0.5-2.1c-0.3-0.2-0.6-0.4-0.9-0.4c-0.4,0-0.7,0.1-1,0.2c-0.9,0.7-1.2,2-1.4,3.1c-0.6,2.4-0.7,5-1.9,7.2
	c-0.2,0.4-0.5,0.9-0.8,1.3c-0.2,0.3-0.5,0.5-0.7,0.7c-0.3,0.2-0.6,0.3-1,0.2c-0.2-0.1-0.4-0.2-0.6-0.3c-0.2-0.1-0.3-0.3-0.4-0.5
	c-0.2-0.4-0.2-0.8-0.2-1.3c-0.1-2.2,0.3-4.3,1-6.4c0.2-0.5,0.3-1,0.4-1.5c0.1-0.6,0.1-1.5-0.4-2.1c-0.3-0.3-0.6-0.4-0.9-0.5
	c-0.4-0.1-0.7-0.1-1.1,0c-0.3,0.1-0.7,0.4-0.9,0.6c-0.3,0.3-0.5,0.6-0.6,1c-0.8,1.9-1,3.8-1.3,5.8c-0.1,1.3-0.5,2.6-1.2,3.7
	c-0.4,0.7-0.9,1.4-1.5,2c-0.3,0.3-0.6,0.6-0.9,0.9c-0.2,0.2-0.4,0.3-0.6,0.4c-0.2,0.1-0.5,0.1-0.7,0.1c-0.2,0-0.5-0.1-0.7-0.3
	c-0.2-0.1-0.4-0.3-0.5-0.6c-0.2-0.4-0.3-0.8-0.4-1.3c-0.1-0.8-0.2-1.6-0.1-2.4c0-0.9,0-1.8,0.2-2.6c0.3-1.6,2.7-7.7,3.2-9.4
	c0.6-1.6,1-3.3,1.4-5c0.3-1.5,0.5-3.1,0.4-4.6c0-1.1-0.3-2.3-1.2-2.9c-0.4-0.2-0.8-0.4-1.2-0.4c-0.4,0-0.9,0-1.2,0.2
	c-0.8,0.4-1.4,1-1.8,1.7c-0.4,0.7-0.7,1.5-0.9,2.4c-0.4,1.7-0.8,3.4-1.1,5.2c-0.3,1.7-0.6,3.4-0.8,5.1c-0.2,1.4-0.8,6.5-1,7.5
	c-0.3,1.1-0.7,2.2-1.2,3.2c-0.5,1.1-1,2.1-1.6,3.2c-0.2,0.3-0.4,0.6-0.7,0.9c-0.2,0.1-0.3,0.2-0.5,0.2c-0.2,0-0.4,0-0.6-0.1
	c-0.2-0.1-0.4-0.3-0.5-0.5c-0.1-0.2-0.2-0.4-0.2-0.7c-0.3-1.7,0-3.5,0.3-5.2c0.3-1.7,1.8-9.6,2.1-11.4c0.4-2.1,1-4.2,1.1-6.4
	c0.1-1.6,0.4-3.5-0.8-4.7c-0.2-0.2-0.5-0.4-0.8-0.5c-0.3-0.1-0.6-0.1-1,0c-0.6,0.2-1.2,0.6-1.6,1.2c-0.4,0.6-0.8,1.2-1,1.9
	c-0.4,1.2-0.8,2.4-1,3.7l-0.1,0.5c-0.3,1.5-0.6,3.1-0.8,4.6c-0.1,0.8-0.2,1.7-0.2,2.5c0,0.4-0.1,0.8-0.1,1.2c0,0.3,0,0.7-0.1,1
	c0,0.1-0.1,0.2-0.2,0.3c-0.4,0.2-0.8,0.3-1.2,0.2c-2.2-0.1-4.2,1.2-5.4,3c-0.7,1-1.2,2.2-1.6,3.3c-0.1,0.2-0.1,0.4-0.2,0.6
	c-0.2,0.7-0.5,1.4-0.9,2c-0.4,0.6-0.8,1.3-1.3,1.8c-0.5,0.6-1,1.1-1.6,1.6c-0.6,0.5-1.3,0.9-2,1c-0.4,0.1-0.8,0-1.2-0.1
	c-0.4-0.1-0.7-0.4-1-0.7c-0.5-0.6-0.8-1.4-0.8-2.2c0-0.2,0-0.5,0.1-0.7c0.1-0.1,0.3-0.2,0.4-0.3c0.2-0.1,0.3-0.1,0.5-0.1
	c1.2-0.1,2.4-0.5,3.3-1.2c1-0.7,1.7-1.7,2.2-2.8c0.5-1.3,0.7-2.8,0.5-4.2c-0.1-0.7-0.4-1.3-0.7-1.9c-0.4-0.6-1-1-1.6-1.3
	c-0.6-0.3-1.3-0.4-2-0.4c-0.7,0-1.4,0.1-2,0.4c-2.3,0.9-3.8,3-4.5,6.2l-0.1,0.3c-0.4,2-0.9,4-2.3,5.4c-0.2,0.2-0.4,0.4-0.7,0.5
	c-0.3,0.1-0.5,0.1-0.8,0.1c-0.1,0-0.2-0.1-0.3-0.1c-0.1-0.1-0.1-0.1-0.2-0.2c-0.4-0.6,0-2.1,0.6-4c0.2-0.5,0.3-1,0.4-1.5
	c0-0.7-0.1-1.4-0.4-2c-0.3-0.6-0.9-1-1.5-1.3c-0.6-0.2-1.2-0.3-1.9-0.2h-0.2c-0.2,0-0.4,0-0.6-0.1c-0.1,0-0.3-0.1-0.4-0.2
	c-0.1-0.1-0.2-0.2-0.2-0.3c-0.1-0.3,0-0.6,0.1-0.9c0-0.1,0.1-0.2,0.1-0.3c0.1-0.3,0.1-0.6-0.1-0.9c-0.1-0.3-0.3-0.5-0.6-0.7
	c-0.3-0.2-0.6-0.3-0.9-0.3c-0.3,0-0.7,0-1,0.2c-0.6,0.3-1.1,0.8-1.5,1.4c-0.3,0.6-0.5,1.3-0.4,1.9c0.2,0.6,0.3,1.3,0.2,1.9
	c-0.2,1.1-0.9,2-1.6,3c-0.1,0.2-0.3,0.4-0.4,0.6c-0.8,1.2-1.8,2.3-2.8,3.3c-1.4,1.3-3.1,2.2-5,2.7c-3,0.7-6-0.2-7.7-2.9
	c-0.9-1.6-1.3-3.3-1.4-5.1c-0.2-3.4,0.4-6.9,1.8-10.1c1.3-3,3.3-6.1,6.9-6.5c1.4-0.1,3,0.3,3.6,1.6c0.4,0.9,0.3,2,0,3
	c-0.3,1-0.7,2-0.7,3c0,1,0.5,2.2,1.5,2.5c1,0.3,2-0.3,2.5-1.2c0.6-0.8,0.7-1.8,1-2.8c0.6-2.3,1.5-4.5,2.7-6.5c0.6-0.9,1.2-2,1-3
	c-0.1-0.4-0.2-0.7-0.5-1c-0.3-0.3-0.6-0.5-1-0.6c-0.4-0.1-0.8-0.1-1.2,0c-0.4,0.1-0.7,0.3-1,0.6c-0.5,0.6-0.8,1.5-1.6,1.7
	c-0.7,0.3-1.4-0.2-2-0.6c-2.4-1.3-5.3-1.2-7.9-0.2C8.1,3.8,6,5.6,4.5,7.9c-2.2,3.3-3.6,7.1-3.9,11c-0.1,1.4-0.1,2.8,0,4.2
	c0.1,1.6,0.4,3.2,0.9,4.8c0.5,1.6,1.2,3.1,2.2,4.4c1,1.3,2.3,2.3,3.8,3c1.5,0.6,3.1,0.9,4.8,0.8c1.6-0.1,3.2-0.5,4.7-1.2
	c1.5-0.7,2.9-1.6,4.1-2.7c1.3-1,2.4-2.2,3.4-3.6c0.7-0.9,1.3-1.8,1.8-2.8c0.3-0.5,0.5-1,0.7-1.5c0.1-0.2,0.2-0.4,0.3-0.6
	c0.1-0.2,0.3-0.3,0.5-0.4c0.1-0.1,0.3-0.1,0.4-0.1c0.1,0,0.3,0.1,0.4,0.1c0.2,0.1,0.4,0.3,0.5,0.5c0.1,0.4,0.1,0.9,0,1.3v0.1
	c-0.1,0.4-0.2,0.8-0.4,1.2c-0.5,1.7-0.9,3.3-0.6,4.8c0.1,0.8,0.5,1.5,1,2.1c0.5,0.6,1.2,1,2,1.1c1,0.1,2-0.1,2.9-0.5
	c0.6-0.3,1.1-0.6,1.6-1.1c0.2-0.2,0.5-0.5,0.7-0.7c0.2-0.2,0.4-0.6,0.7-0.6c0.1,0,0.2,0,0.3,0.1c0.1,0,0.1,0.1,0.2,0.2
	c0.1,0.1,0.2,0.3,0.2,0.4c0.5,1,1.2,1.9,2.2,2.5c0.9,0.6,2,0.9,3.2,0.9h0.3c1.1,0,2.2-0.3,3.2-0.9c1-0.6,2-1.4,2.8-2.2
	c0.1-0.1,0.2-0.1,0.3-0.2c0.1,0,0.2,0,0.2,0c0.1,0,0.1,0.1,0.2,0.1c0.1,0.1,0.2,0.3,0.2,0.4c0.3,0.7,0.7,1.3,1.3,1.7
	c0.6,0.5,1.3,0.8,2,0.9c0.7,0.1,1.5,0,2.2-0.2c0.7-0.2,1.3-0.7,1.8-1.2c0.2-0.3,0.4-0.5,0.7-0.7c0.1-0.1,0.3-0.2,0.4-0.2
	c0.2,0,0.3,0,0.5,0c0.4,0.2,0.5,0.7,0.7,1.1c0.2,0.5,0.6,0.8,1,1.1c0.4,0.3,0.9,0.4,1.4,0.4c1.2-0.1,2.3-0.5,3.1-1.4
	c0.8-0.8,1.5-1.6,2.1-2.4c0.1-0.2,0.2-0.3,0.4-0.4c0.1,0,0.2-0.1,0.3-0.1c0.1,0,0.2,0,0.3,0.1c0.1,0.1,0.2,0.2,0.2,0.4
	c0.3,0.8,0.9,1.4,1.6,1.9c0.7,0.5,1.6,0.7,2.4,0.7c1.7-0.1,3.3-0.8,4.4-2.1c0.3-0.4,0.8-0.7,1.3-0.9c0.6-0.1,0.8,0.4,1,0.9
	c0.2,0.5,0.5,1,1,1.3c0.3,0.2,0.7,0.4,1.1,0.4c0.4,0.1,0.8,0.1,1.1,0c0.8-0.2,1.4-0.7,1.9-1.3c0.3-0.4,0.4-0.8,0.8-1.1
	c0.3-0.3,0.5,0.1,0.5,0.4c0,0.5,0.1,0.9,0,1.4c0,0.9-0.2,1.9-0.3,2.8c0,0.3-0.1,0.5-0.3,0.8c-0.1,0.1-0.3,0.2-0.5,0.3
	c-0.2,0-0.4,0-0.5,0c-0.4-0.1-0.8-0.1-1.3-0.1l-0.5-0.1c-0.8-0.1-1.6-0.1-2.4-0.2H79c-1.4,0-2.8,0.2-4.1,0.6
	c-0.9,0.3-1.8,0.9-2.5,1.6c-0.7,0.7-1.2,1.6-1.6,2.5c-0.3,0.8-0.4,1.7-0.2,2.6c0.2,0.9,0.5,1.7,1.1,2.3c0.6,0.7,1.3,1.2,2.1,1.6
	c0.8,0.4,1.7,0.6,2.5,0.6c1.8,0.1,3.6-0.3,5.2-1c1.7-0.7,3.1-1.8,4.3-3.1c1.2-1.4,2-3,2.5-4.7c0,0,0-0.1,0-0.1c0,0,0-0.1,0.1-0.1
	c1.2-0.4,2.3-1,3.3-1.7c1-0.7,1.9-1.6,2.6-2.6c0.4-0.5,0.7-1,1-1.5c0.3-0.5,0.5-1,0.8-1.5c0.2-0.4,0.4-0.8,0.5-1.3
	c0.1-0.2,0.1-0.5,0-0.7c0-0.2-0.1-0.4-0.2-0.6C96.4,29.8,96.2,29.7,95.9,29.6 M41.1,23.1c0.1-0.3,0.2-0.6,0.2-0.8
	c0.2-0.7,0.6-1.4,1-2c0.2-0.2,0.3-0.4,0.5-0.6c0.2-0.2,0.5-0.2,0.7-0.2c0.2,0.1,0.4,0.2,0.5,0.3c0.1,0.2,0.2,0.4,0.3,0.6
	c0.1,0.8-0.1,1.5-0.4,2.2c-0.3,0.6-0.7,1.2-1.3,1.7c-0.2,0.2-0.5,0.3-0.7,0.4c-0.1,0.1-0.3,0.1-0.4,0.1h-0.1c-0.1,0-0.2,0-0.3-0.1
	s-0.2-0.2-0.2-0.3C41,24,41,23.5,41.1,23.1 M58.4,22.3c0,0.3-0.1,0.6-0.1,0.9c0,0.4,0,0.8,0,1.2c0,0.7,0,1.3,0.1,2
	c0.1,0.7,0.2,1.2-0.1,1.8c-0.2,0.7-0.7,1.4-1.3,1.9c-0.3,0.3-0.6,0.5-1,0.6c-0.3,0.2-0.6,0.2-1,0.2c-0.1,0-0.1,0-0.2,0
	c-0.2,0-0.4-0.1-0.6-0.2c-0.2-0.1-0.3-0.3-0.4-0.5c-0.2-0.3-0.3-0.7-0.4-1.1c-0.3-1.5-0.2-3,0.3-4.5c0.3-0.9,0.8-1.7,1.5-2.4
	c0.6-0.6,1.4-0.9,2.3-1c0.1,0,0.3,0,0.4,0c0.1,0,0.3,0.1,0.4,0.2c0.2,0.2,0.2,0.4,0.2,0.7C58.4,22.2,58.4,22.3,58.4,22.3 M84.2,40.9
	c-0.1,0.2-0.2,0.4-0.3,0.6c-0.2,0.3-0.4,0.6-0.7,0.9c-0.4,0.4-0.8,0.8-1.3,1.2c-0.9,0.7-2,1.2-3.1,1.6c-0.6,0.2-1.3,0.3-2,0.3h-0.1
	c-0.8,0-1.5-0.2-2.1-0.7c-0.3-0.3-0.5-0.6-0.6-1c-0.1-0.4,0-0.8,0.2-1.2c0.3-0.7,0.9-1.2,1.5-1.6c1.3-0.5,2.7-0.8,4.1-0.6l1.6,0.1
	c0.4,0,0.9,0.1,1.3,0.1c0.2,0,0.4,0,0.7,0c0.2,0,0.4,0,0.5,0C84.2,40.7,84.2,40.8,84.2,40.9"/>
<path class="st1" d="M29.6,44.6v-5.1h0.7v1.9c0.1-0.2,0.3-0.3,0.5-0.5c0.2-0.1,0.4-0.2,0.7-0.2c1,0,1.6,0.7,1.6,1.9
	c0,1.2-0.7,1.9-1.6,1.9c-0.2,0-0.5-0.1-0.7-0.2s-0.4-0.3-0.5-0.4v0.5H29.6z M30.3,43.6c0.1,0.2,0.3,0.3,0.4,0.4
	c0.2,0.1,0.4,0.1,0.6,0.1c0.7,0,1.1-0.5,1.1-1.3s-0.4-1.3-1.1-1.3c-0.2,0-0.4,0.1-0.6,0.1c-0.2,0.1-0.3,0.2-0.4,0.4V43.6z"/>
<path class="st1" d="M34.1,45.4c0.1,0,0.2,0.1,0.3,0.1c0.1,0,0.2,0,0.3-0.1c0.1-0.1,0.2-0.2,0.2-0.3l0.2-0.5L33.7,41h0.7l1.1,2.9
	l1.1-2.9h0.7l-1.8,4.4c-0.1,0.2-0.2,0.5-0.4,0.6s-0.5,0.2-0.7,0.2c-0.2,0-0.3,0-0.4-0.1L34.1,45.4z"/>
<path class="st1" d="M40.3,44.6v-5.1h2.1c0.2,0,0.4,0,0.6,0.1c0.2,0.1,0.4,0.2,0.5,0.3c0.2,0.1,0.3,0.3,0.4,0.5
	c0.1,0.2,0.1,0.4,0.1,0.6c0,0.2,0,0.4-0.1,0.6c-0.1,0.2-0.2,0.4-0.4,0.5c-0.2,0.1-0.3,0.3-0.5,0.3c-0.2,0.1-0.4,0.1-0.6,0.1h-1.3
	v1.9H40.3z M42.4,40.2h-1.3V42h1.3c0.1,0,0.2,0,0.4-0.1c0.1,0,0.2-0.1,0.3-0.2c0.1-0.1,0.2-0.2,0.2-0.3c0-0.1,0.1-0.2,0.1-0.4
	c0-0.1,0-0.2-0.1-0.4c0-0.1-0.1-0.2-0.2-0.3c-0.1-0.1-0.2-0.1-0.3-0.2C42.6,40.2,42.5,40.2,42.4,40.2L42.4,40.2z"/>
<path class="st1" d="M46.5,40.9c1.1,0,1.8,0.9,1.8,2V43h-2.9c0,0.3,0.2,0.6,0.4,0.8c0.2,0.2,0.5,0.3,0.9,0.3c0.4,0,0.8-0.2,1.1-0.4
	l0.3,0.4c-0.4,0.4-0.9,0.6-1.5,0.5c-0.3,0-0.5,0-0.7-0.1c-0.2-0.1-0.4-0.2-0.6-0.4c-0.2-0.2-0.3-0.4-0.4-0.6
	c-0.1-0.2-0.1-0.5-0.1-0.7c0-0.2,0-0.5,0.1-0.7c0.1-0.2,0.2-0.4,0.4-0.6c0.2-0.2,0.4-0.3,0.6-0.4C46,40.9,46.3,40.9,46.5,40.9
	L46.5,40.9z M45.4,42.5h2.2c0-0.1,0-0.3-0.1-0.4c-0.1-0.1-0.1-0.3-0.2-0.4c-0.1-0.1-0.2-0.2-0.4-0.2c-0.1-0.1-0.3-0.1-0.4-0.1
	c-0.3,0-0.6,0.1-0.8,0.3C45.5,42,45.4,42.2,45.4,42.5L45.4,42.5z"/>
<path class="st1" d="M51.6,44.6v-0.4c-0.2,0.2-0.3,0.3-0.5,0.4c-0.2,0.1-0.4,0.1-0.7,0.1c-0.2,0-0.3,0-0.5-0.1
	c-0.2-0.1-0.3-0.1-0.4-0.3c-0.1-0.1-0.2-0.2-0.3-0.4c-0.1-0.2-0.1-0.3-0.1-0.5c0-0.2,0-0.3,0.1-0.5c0.1-0.2,0.2-0.3,0.3-0.4
	c0.1-0.1,0.3-0.2,0.4-0.3c0.2-0.1,0.3-0.1,0.5-0.1c0.2,0,0.4,0,0.7,0.1c0.2,0.1,0.4,0.2,0.5,0.4v-0.6c0-0.4-0.4-0.7-0.9-0.7
	c-0.2,0-0.4,0-0.6,0.1c-0.2,0.1-0.4,0.2-0.5,0.4l-0.3-0.5c0.2-0.2,0.4-0.3,0.7-0.5c0.3-0.1,0.5-0.2,0.8-0.1c0.8,0,1.5,0.3,1.5,1.3
	v2.5H51.6z M51.6,43.2c-0.1-0.1-0.3-0.2-0.4-0.3s-0.3-0.1-0.5-0.1c-0.1,0-0.2,0-0.3,0c-0.1,0-0.2,0.1-0.3,0.2
	c-0.1,0.1-0.1,0.2-0.2,0.2c0,0.1-0.1,0.2-0.1,0.3c0,0.1,0,0.2,0.1,0.3c0,0.1,0.1,0.2,0.2,0.2c0.1,0.1,0.2,0.1,0.3,0.2
	c0.1,0,0.2,0,0.3,0c0.2,0,0.4,0,0.5-0.1c0.2-0.1,0.3-0.2,0.4-0.3V43.2z"/>
<path class="st1" d="M53.6,44.6V41h0.7v0.6c0.1-0.2,0.3-0.3,0.5-0.5c0.2-0.1,0.4-0.2,0.7-0.2v0.7c-0.1,0-0.2,0-0.2,0
	c-0.2,0-0.4,0.1-0.5,0.2c-0.2,0.1-0.3,0.2-0.4,0.4v2.5L53.6,44.6z"/>
<path class="st1" d="M56.3,43.6c0.3,0.3,0.8,0.5,1.2,0.5c0.5,0,0.8-0.2,0.8-0.5c0-0.3-0.4-0.5-0.9-0.6c-0.6-0.1-1.3-0.3-1.3-1.1
	c0-0.6,0.5-1.1,1.4-1.1c0.5,0,1,0.2,1.4,0.5l-0.3,0.5c-0.1-0.1-0.3-0.3-0.5-0.3c-0.2-0.1-0.4-0.1-0.6-0.1c-0.4,0-0.8,0.2-0.8,0.5
	c0,0.3,0.4,0.4,0.9,0.5c0.6,0.1,1.4,0.3,1.4,1.2c0,0.6-0.5,1.1-1.5,1.1c-0.3,0-0.6,0-0.8-0.1c-0.3-0.1-0.5-0.2-0.7-0.4L56.3,43.6z"
	/>
<path class="st1" d="M59.8,42.8c0-0.2,0-0.5,0.1-0.7c0.1-0.2,0.2-0.4,0.4-0.6c0.2-0.2,0.4-0.3,0.6-0.4c0.2-0.1,0.5-0.1,0.7-0.1
	c0.2,0,0.5,0,0.7,0.1c0.2,0.1,0.4,0.2,0.6,0.4c0.2,0.2,0.3,0.4,0.4,0.6c0.1,0.2,0.1,0.5,0.1,0.7c0,0.2,0,0.5-0.1,0.7
	c-0.1,0.2-0.2,0.4-0.4,0.6c-0.2,0.2-0.4,0.3-0.6,0.4c-0.2,0.1-0.5,0.1-0.7,0.1c-0.3,0-0.5,0-0.7-0.1c-0.2-0.1-0.4-0.2-0.6-0.4
	c-0.2-0.2-0.3-0.4-0.4-0.6C59.9,43.3,59.8,43,59.8,42.8z M62.8,42.8c0-0.2,0-0.3,0-0.5c0-0.2-0.1-0.3-0.2-0.4
	c-0.1-0.1-0.2-0.2-0.4-0.3c-0.1-0.1-0.3-0.1-0.5-0.1c-0.2,0-0.3,0-0.5,0.1c-0.1,0.1-0.3,0.2-0.4,0.3c-0.1,0.1-0.2,0.3-0.2,0.4
	c0,0.2-0.1,0.3,0,0.5c0,0.2,0,0.3,0,0.5c0,0.2,0.1,0.3,0.2,0.4c0.1,0.1,0.2,0.2,0.4,0.3c0.1,0.1,0.3,0.1,0.5,0.1
	c0.2,0,0.3,0,0.5-0.1c0.1-0.1,0.3-0.2,0.4-0.3c0.1-0.1,0.2-0.3,0.2-0.4C62.8,43.1,62.8,42.9,62.8,42.8L62.8,42.8z"/>
<path class="st1" d="M67.1,44.6v-2.3c0-0.6-0.3-0.8-0.8-0.8c-0.2,0-0.4,0.1-0.6,0.1c-0.2,0.1-0.3,0.2-0.4,0.4v2.6h-0.7V41h0.7v0.5
	c0.2-0.2,0.4-0.3,0.6-0.4c0.2-0.1,0.5-0.2,0.7-0.2c0.2,0,0.3,0,0.5,0c0.2,0.1,0.3,0.1,0.4,0.3c0.1,0.1,0.2,0.3,0.3,0.4
	c0.1,0.2,0.1,0.3,0,0.5v2.6H67.1z"/>
</svg>
