<svg id="Layer_1" data-name="Layer 1" xmlns="http://www.w3.org/2000/svg" xmlns:xlink="http://www.w3.org/1999/xlink" viewBox="0 0 55.35 51.54"><defs><style>.cls-1,.cls-2,.cls-4,.cls-5{fill:#fff;}.cls-1,.cls-6{stroke:#fff;}.cls-1,.cls-4,.cls-5,.cls-6{stroke-miterlimit:10;}.cls-1,.cls-5,.cls-6{stroke-width:0.5px;}.cls-3{clip-path:url(#clip-path);}.cls-4,.cls-5{stroke:#04aa6d;}.cls-6{fill:none;}</style><clipPath id="clip-path" transform="translate(0.85 0.5)"><rect class="cls-1" x="-0.05" width="54.1" height="50.79"/></clipPath></defs><rect class="cls-2" x="0.8" y="0.5" width="54.1" height="50.79"/><g class="cls-3"><path class="cls-4" d="M45.51,10.69a4.94,4.94,0,0,0,3.26,1.46A2.33,2.33,0,0,0,51.37,10c0-1.52-1.4-2.23-3.08-2.23h-1L46.7,6.44l2.64-3.13a13.19,13.19,0,0,1,1-1.09s-.42,0-1.27,0H44.81V0h8.78V1.64L50.07,5.71A4.26,4.26,0,0,1,54,9.9a4.75,4.75,0,0,1-5.06,4.72,6.65,6.65,0,0,1-4.76-1.92Z" transform="translate(0.85 0.5)"/><path class="cls-4" d="M28.39,13.72,40,34.37l5.73-10.2-11-19.49H22l-5.28,9.4-5.28-9.4H0L16.67,34.37l.07-.11.06.11Z" transform="translate(0.85 0.5)"/><path class="cls-5" d="M.12,48.36H1.81a1.07,1.07,0,0,0,1.2,1c.72,0,1.19-.36,1.19-.84s-.31-.59-.85-.71l-1-.25C.73,47.11.31,46.24.31,45.31A2.47,2.47,0,0,1,3,43.14c1.3,0,2.77.66,2.75,2.28H4.05a.88.88,0,0,0-1-.81c-.56,0-1,.32-1,.77s.35.6.77.69l1.17.32C5.71,46.81,6,47.83,6,48.5,6,50,4.52,50.79,3.05,50.79A2.69,2.69,0,0,1,.12,48.36Z" transform="translate(0.85 0.5)"/><path class="cls-5" d="M7.5,47a3.82,3.82,0,0,1,4-3.82,3.72,3.72,0,0,1,3,1.4l-1.28,1a2.14,2.14,0,0,0-1.65-.74,2.15,2.15,0,1,0,0,4.29,2.14,2.14,0,0,0,1.65-.74l1.28,1a3.72,3.72,0,0,1-3,1.4A3.83,3.83,0,0,1,7.5,47Z" transform="translate(0.85 0.5)"/><path class="cls-5" d="M23.15,46.52V50.6H21.34v-4a1.59,1.59,0,0,0-1.52-1.8A1.77,1.77,0,0,0,18,46.75v3.86H16.15V39.36H18v5.06a2.55,2.55,0,0,1,2.26-1.29C22.11,43.14,23.15,44.4,23.15,46.52Z" transform="translate(0.85 0.5)"/><path class="cls-5" d="M25.05,47a3.88,3.88,0,1,1,3.87,3.83A3.76,3.76,0,0,1,25.05,47ZM31,47a2.07,2.07,0,0,0-2.06-2.14A2.15,2.15,0,1,0,31,47Z" transform="translate(0.85 0.5)"/><path class="cls-5" d="M34.35,47a3.88,3.88,0,1,1,3.86,3.83A3.75,3.75,0,0,1,34.35,47Zm5.93,0a2.06,2.06,0,1,0-4.11,0,2.06,2.06,0,1,0,4.11,0Z" transform="translate(0.85 0.5)"/><path class="cls-5" d="M44.11,50.61V39.36h1.81V50.61Z" transform="translate(0.85 0.5)"/><path class="cls-5" d="M47.9,48.36h1.69a1.07,1.07,0,0,0,1.2,1c.72,0,1.19-.36,1.19-.84s-.31-.59-.85-.71l-1-.25c-1.65-.43-2.07-1.3-2.07-2.23a2.47,2.47,0,0,1,2.71-2.17c1.3,0,2.77.66,2.75,2.28H51.82a.88.88,0,0,0-1-.81c-.56,0-1,.32-1,.77s.35.6.77.69l1.17.32c1.64.42,1.93,1.44,1.93,2.11,0,1.48-1.48,2.29-3,2.29A2.68,2.68,0,0,1,47.9,48.36Z" transform="translate(0.85 0.5)"/></g><rect class="cls-6" x="0.8" y="0.5" width="54.1" height="50.79"/></svg>